<svg xmlns="http://www.w3.org/2000/svg" viewBox="0 0 32 32" id="groupme"><g data-name="Layer 34"><path fill="#FFF" d="M24 2H8a5 5 0 0 0-5 5v13a5 5 0 0 0 5 5h3.44l3.79 4.63a1 1 0 0 0 1.54 0L20.56 25H24a5 5 0 0 0 5-5V7a5 5 0 0 0-5-5Zm3 18a3 3 0 0 1-3 3h-3.91a1 1 0 0 0-.77.37L16 27.42l-3.32-4.05a1 1 0 0 0-.77-.37H8a3 3 0 0 1-3-3V7a3 3 0 0 1 3-3h16a3 3 0 0 1 3 3Z"></path><path fill="#FFF" d="M19.2 17.4a4 4 0 0 1-6.4 0 1 1 0 1 0-1.6 1.2 6 6 0 0 0 9.6 0 1 1 0 0 0-1.6-1.2zM12.5 12a1 1 0 0 0 0 2h.5v.5a1 1 0 0 0 2 0V14h2v.5a1 1 0 0 0 2 0V14h.5a1 1 0 0 0 0-2H19v-2h.5a1 1 0 0 0 0-2H19v-.5a1 1 0 0 0-2 0V8h-2v-.5a1 1 0 0 0-2 0V8h-.5a1 1 0 0 0 0 2h.5v2zm2.5-2h2v2h-2z"></path></g></svg>